<svg xmlns="http://www.w3.org/2000/svg" width="52" height="73"><path d="M21.414 34.82h2.066V71.5h-2.066V34.82zM9.547 23.14a5.975 5.975 0 018.369 0 5.775 5.775 0 010 8.25 5.994 5.994 0 01-8.369 0 5.775 5.775 0 010-8.25zM26.286 6.63a5.994 5.994 0 018.369 0 5.787 5.787 0 010 8.26 5.994 5.994 0 01-8.369 0 5.785 5.785 0 010-8.26zm-10.1 24.04A5.918 5.918 0 1122.1 36.5a5.874 5.874 0 01-5.913-5.83zm0-23.34a5.918 5.918 0 115.917 5.84 5.874 5.874 0 01-5.916-5.84zm10.1 24.04a5.773 5.773 0 010-8.25 5.975 5.975 0 018.369 0 5.775 5.775 0 010 8.25 5.975 5.975 0 01-8.369 0zM9.547 14.87a5.775 5.775 0 010-8.25 5.975 5.975 0 018.369 0 5.775 5.775 0 010 8.25 5.975 5.975 0 01-8.369 0zm24.381 9.95a5.831 5.831 0 115.918-5.83 5.875 5.875 0 01-5.918 5.83zm-23.672 0a5.831 5.831 0 115.918-5.83 5.875 5.875 0 01-5.918 5.83zM22.092 8.5A10.5 10.5 0 1111.446 19 10.574 10.574 0 0122.092 8.5zm.878 49.7l-1.045-1.05 13.946-13.83 1.045 1.05zm.161-1.58l-1.045 1.74L4.653 41.08l1.045-1.75zM50.5 31.45s-.984 14.42-5.239 18.63-10.74 4.63-14.485.92-3.33-10.14.925-14.36S50.5 31.45 50.5 31.45zm-49 6.45s.72 10.51 3.837 13.58 7.867 3.38 10.61.67 2.439-7.39-.677-10.47S1.5 37.9 1.5 37.9z" fill="none" stroke="#fff" stroke-width="2"/></svg>