<svg xmlns="http://www.w3.org/2000/svg" width="61.031" height="71.34"><path d="M8.816 52.24a24.928 24.928 0 010-35.24C24.305 1.51 59.531 1.5 59.531 1.5s-.007 35.25-15.5 50.74a24.9 24.9 0 01-35.215 0zm.057 2.9S2.94 60.27 5.936 69.83m-1.468-.73s-5.88-47.18 54.329-66.87M10.341 44.85v-1.47h28.633v1.47H10.341zm8.81-16.16v-1.47h25.7v1.47h-25.7zm16.152-13.23v-1.47h16.152v1.47H35.303zm.734-.73h-1.468V8.11h1.468v6.62zM19.885 27.95h-1.468V13.99h1.468v13.96zm-9.544 16.17H8.873V25.01h1.468v19.11z" fill="none" stroke="#fff" stroke-width="2"/></svg>