<svg xmlns="http://www.w3.org/2000/svg" width="63" height="67"><path d="M41.623 8.43l17.812 17.7a6.931 6.931 0 010 9.84L32.222 63.01a7.019 7.019 0 01-9.895 0L4.515 45.31a6.919 6.919 0 010-9.83L31.727 8.43a7.039 7.039 0 019.896 0zM32.6 41.68l.156 16.86a6.89 6.89 0 01-7 6.96l-16.969-.15a7.208 7.208 0 01-7.134-7.09l-.156-16.87a6.9 6.9 0 017-6.96l16.968.16a7.2 7.2 0 017.135 7.09zm-14.273 6.59a4.841 4.841 0 010 6.88 4.92 4.92 0 01-6.926 0 4.841 4.841 0 010-6.88 4.9 4.9 0 016.926 0zm-1.608 9.56s-11.2-10.08-11.2-31.3 4.9-25.03 7-25.03 5.948 4.17 6.3 21.56" fill="none" stroke="#fff" stroke-width="2"/></svg>